PathFileType	4	(X/Y/Z)	FAILT01_SDP01_markers.trc
DataRate	CameraRate	NumFrames	NumMarkers	Units	OrigDataRate	OrigDataStartFrame	OrigNumFrames
100	100	4	59	mm	100	335	446
Frame#	Time	RSH			LSH			C7			LELB			LWR			RELB			RWR			RASI			LASI			SACR			P1			P2			P3			LTHLP			LTHLD			LTHAP			LTHAD			LLEPI			LPAT			LTIAP			LTIAD			LTILAT			LLMAL			LHEEL			LMFS			LMFL			LP5MT			LP1MT			LTOE			RTHLP			RTHLD			RTHAP			RTHAD			RLEPI			RPAT			RTIAP			RTIAD			RTILAT			RLMAL			RHEEL			RMFS			RMFL			RP5MT			RP1MT			RTOE			P4			*46			*47			*48			*49			*50			*51			*52			*53			*54			*55			*56			*57			*58			
		X1	Y1	Z1	X2	Y2	Z2	X3	Y3	Z3	X4	Y4	Z4	X5	Y5	Z5	X6	Y6	Z6	X7	Y7	Z7	X8	Y8	Z8	X9	Y9	Z9	X10	Y10	Z10	X11	Y11	Z11	X12	Y12	Z12	X13	Y13	Z13	X14	Y14	Z14	X15	Y15	Z15	X16	Y16	Z16	X17	Y17	Z17	X18	Y18	Z18	X19	Y19	Z19	X20	Y20	Z20	X21	Y21	Z21	X22	Y22	Z22	X23	Y23	Z23	X24	Y24	Z24	X25	Y25	Z25	X26	Y26	Z26	X27	Y27	Z27	X28	Y28	Z28	X29	Y29	Z29	X30	Y30	Z30	X31	Y31	Z31	X32	Y32	Z32	X33	Y33	Z33	X34	Y34	Z34	X35	Y35	Z35	X36	Y36	Z36	X37	Y37	Z37	X38	Y38	Z38	X39	Y39	Z39	X40	Y40	Z40	X41	Y41	Z41	X42	Y42	Z42	X43	Y43	Z43	X44	Y44	Z44	X45	Y45	Z45	X46	Y46	Z46	X47	Y47	Z47	X48	Y48	Z48	X49	Y49	Z49	X50	Y50	Z50	X51	Y51	Z51	X52	Y52	Z52	X53	Y53	Z53	X54	Y54	Z54	X55	Y55	Z55	X56	Y56	Z56	X57	Y57	Z57	X58	Y58	Z58	X59	Y59	Z59
335	        3.3399999142	    -2002.4067163467	     1370.3576326370	      291.6703969240	    -2021.7720270157	     1390.0095224380	      569.3462789059	    -1949.7181177139	     1433.0666065216	      428.0436635017	    -2160.9603166580	     1124.4887113571	      553.2433390617	    -2140.2422189713	     1257.9462528229	      365.4635343701	    -2194.4133043289	     1176.7746210098	      288.7680083513	    -2157.8775644302	     1263.2169723511	      506.3882917166	    -2067.2101974487	      920.9926128387	      321.5582780540	    -2083.6910009384	      939.2495155334	      540.8855080605	    -1896.4531421661	     1008.5194110870	      431.7407719791	    -1900.6624221802	     1012.1859312057	      483.6679622531	    -1892.2437429428	     1004.8531293869	      379.8135810066	    -1873.5675811768	      947.3239183426	      442.1316795051	    -2077.4599313736	      717.0180678368	      600.8281707764	    -2109.0214252472	      624.2061853409	      570.8338171244	    -2166.3064956665	      748.3997941017	      516.0831212997	    -2188.3811950684	      653.8290977478	      490.5321374536	    -2150.6869792938	      503.4107565880	      540.4215008020	    -2212.9014730453	      530.9703946114	      463.4159877896	    -2175.5316257477	      340.9104645252	      455.8947980404	    -2158.4066152573	      230.7139188051	      441.3219988346	    -2130.4864883423	      281.0367345810	      521.3279426098	    -2115.2527332306	      106.1275303364	      478.7616655231	    -2051.9177913666	       64.4392892718	      435.4693852365	    -2196.2950229645	      104.7268882394	      422.0090992749	    -2175.2077341080	       75.9187862277	      469.7559103370	    -2224.5030403137	       43.7388643622	      495.1227381825	    -2238.6363744736	       58.2913570106	      368.2947596535	    -2281.5037965775	       83.4384486079	      398.2286881655	    -2026.5095233917	      688.7353062630	      250.7933974266	    -2053.0728101730	      590.0082588196	      262.9889100790	    -2128.0734539032	      710.7909321785	      351.4483682811	    -2144.4468498230	      609.5708012581	      345.4501666129	    -2076.3443708420	      480.0254702568	      268.2309374213	    -2153.8865566254	      477.1875739098	      339.1323946416	    -1968.7038660049	      343.6466455460	      329.0605321527	    -1878.3174753189	      296.5141832829	      324.6674463153	    -1907.6946973801	      348.4291434288	      255.6145340204	    -1755.1474571228	      255.7790577412	      264.3557339907	    -1688.9483928680	      284.6584916115	      301.5532568097	    -1790.5447483063	      169.3145781755	      316.6334405541	    -1752.7253627777	      175.8933663368	      267.8844109178	    -1755.3329467773	      116.5704578161	      250.0242143869	    -1764.8236751556	      113.4710535407	      374.9522725120	    -1806.7978620529	       85.4772925377	      333.7732963264	    -1903.7984609604	     1025.7735252380	      432.0448711514	     -300.7080554962	        0.0000000000	      382.1262419224	    -2130.8023929596	      165.0324910879	      297.6973205805	     -300.7080554962	        0.0000000000	      382.1262419224	     -300.7080554962	        0.0000000000	      382.1262419224	     -300.7080554962	        0.0000000000	      382.1262419224	     -300.7080554962	        0.0000000000	      382.1262419224	     -300.7080554962	        0.0000000000	      382.1262419224	     -300.7080554962	        0.0000000000	      382.1262419224	     -300.7080554962	        0.0000000000	      382.1262419224	     -300.7080554962	        0.0000000000	      382.1262419224	     -300.7080554962	        0.0000000000	      382.1262419224	     -300.7080554962	        0.0000000000	      382.1262419224	     -300.7080554962	        0.0000000000	      382.1262419224
336	        3.3499999046	    -2015.5603885651	     1374.0983009338	      291.4637550712	    -2035.1169109344	     1394.3408727646	      568.9436197281	    -1963.0481004715	     1437.0858669281	      427.6257418096	    -2173.4095811844	     1128.2589435577	      553.4094274044	    -2153.0709266663	     1261.5573406219	      365.4089514166	    -2206.7935466766	     1179.7881126404	      288.5750457644	    -2170.7220077515	     1266.9625282288	      506.2493383884	    -2080.4117918015	      925.4045486450	      321.7289410532	    -2096.2493419647	      942.7366256714	      541.1630570889	    -1909.3443155289	     1012.2967958450	      431.8471550941	    -1913.4849309921	     1015.8367156982	      483.7975800037	    -1905.2035808563	     1008.7569952011	      379.8967252951	    -1886.3366842270	      951.0538578033	      441.9410265982	    -2087.9002809525	      720.0795412064	      601.0037958622	    -2116.5612936020	      625.8203387260	      571.4461356401	    -2175.3580570221	      749.3996620178	      514.9636268616	    -2195.5257654190	      653.3693075180	      490.9218847752	    -2153.7321805954	      503.0473470688	      541.5936708450	    -2217.6107168198	      529.6415090561	      465.1887118816	    -2178.0616044998	      340.2692377567	      457.4559554458	    -2159.7625017166	      230.4290086031	      442.4567706883	    -2130.6208372116	      281.0879349709	      521.9676941633	    -2115.2796745300	      106.1933636665	      479.0513888001	    -2051.7007112503	       64.7310614586	      435.6139153242	    -2196.3607072830	      104.7905087471	      422.3188571632	    -2175.0916242599	       75.9125053883	      469.9939712882	    -2224.4778871536	       43.7330119312	      495.1609000564	    -2238.5665178299	       58.3662912250	      368.3874523267	    -2281.3506126404	       83.3099856973	      398.6157868057	    -2045.0247526169	      694.0483450890	      251.0720193386	    -2075.5960941315	      596.5282917023	      263.1211429834	    -2145.4653739929	      719.1210985184	      352.7302239090	    -2165.3038263321	      618.6391115189	      346.8959964812	    -2101.5573740005	      487.2742295265	      269.1352814436	    -2179.0587902069	      486.6310656071	      340.2790501714	    -1998.1677532196	      347.2806215286	      329.6172581613	    -1909.7120761871	      296.7829406261	      324.7954361141	    -1937.0343685150	      349.9859273434	      256.0474425554	    -1787.8174781799	      252.7318298817	      264.5061612129	    -1719.6738719940	      276.7942249775	      302.7991279960	    -1828.7281990051	      167.6674783230	      314.4215419888	    -1790.6178236008	      173.4931617975	      265.9735158086	    -1797.3719835281	      115.1861920953	      245.9804862738	    -1806.8149089813	      108.3732545376	      370.6633681431	    -1850.5333662033	       84.5806971192	      328.6150395870	    -1916.7087078094	     1029.4919013977	      432.1847744286	    -1913.5280847549	      996.7238306999	      485.9916791320	     -300.7080554962	        0.0000000000	      382.1262419224	     -300.7080554962	        0.0000000000	      382.1262419224	     -300.7080554962	        0.0000000000	      382.1262419224	     -300.7080554962	        0.0000000000	      382.1262419224	     -300.7080554962	        0.0000000000	      382.1262419224	     -300.7080554962	        0.0000000000	      382.1262419224	     -300.7080554962	        0.0000000000	      382.1262419224	     -300.7080554962	        0.0000000000	      382.1262419224	     -300.7080554962	        0.0000000000	      382.1262419224	     -300.7080554962	        0.0000000000	      382.1262419224	     -300.7080554962	        0.0000000000	      382.1262419224	     -300.7080554962	        0.0000000000	      382.1262419224
337	        3.3599998951	    -2028.6215543747	     1377.8187036514	      291.2574410439	    -2048.5290288925	     1398.6917734146	      568.4695094824	    -1976.3295650482	     1441.0077333450	      427.2561185062	    -2185.7872009277	     1132.2240829468	      553.6120086908	    -2165.8850908279	     1265.1696205139	      365.3677906841	    -2219.1413640976	     1182.8699111938	      288.3271872997	    -2183.6893558502	     1270.7337141037	      505.9946253896	    -2093.6317443848	      929.8856258392	      321.8390047550	    -2108.7576150894	      946.2473392487	      541.3937419653	    -1922.0371246338	     1016.0784721375	      431.7396543920	    -1925.9215593338	     1019.5137262344	      483.5990890861	    -1918.1526899338	     1012.6432180405	      379.8802208621	    -1899.0963697433	      954.7258019447	      441.6831322014	    -2098.1951951981	      722.8456735611	      601.1118888855	    -2123.2753992081	      627.1545886993	      571.7849582434	    -2183.9541196823	      750.5178451538	      513.4663432837	    -2202.8694152832	      652.7796387672	      491.3659766316	    -2155.9919118881	      502.8896331787	      542.8925156593	    -2221.7432260513	      528.3988118172	      467.0824557543	    -2180.6334257126	      339.9996161461	      458.7663412094	    -2160.8476638794	      230.2797734737	      443.4254094958	    -2130.9640407562	      281.2156379223	      522.7190256119	    -2115.2244806290	      106.2849909067	      479.4495105743	    -2051.4818429947	       65.0444254279	      435.7238225639	    -2196.3795423508	      104.8771813512	      422.7582626045	    -2174.9516725540	       75.8914276958	      470.2671393752	    -2224.4336605072	       43.6810851097	      495.2287971973	    -2238.4932041168	       58.4340617061	      368.5060078278	    -2281.1146974564	       83.3408758044	      399.0431316197	    -2063.4301900864	      699.6213197708	      251.2709647417	    -2097.6349115372	      603.4259200096	      263.1833255291	    -2162.4026298523	      727.6252508163	      353.8521379232	    -2186.4365339279	      628.1072497368	      347.9210287333	    -2126.1192560196	      494.6624338627	      270.1094821095	    -2203.4827470779	      496.3425993919	      341.2920497358	    -2027.8550386429	      350.4868149757	      329.7832943499	    -1941.6657686234	      296.2312400341	      324.7442543507	    -1966.2109613419	      351.5666425228	      256.2613487244	    -1821.1959600449	      248.5222518444	      264.6735459566	    -1751.4446973801	      267.1292126179	      303.9716929197	    -1867.9389953613	      165.2558445930	      312.1974393725	    -1829.4686079025	      170.2750325203	      264.0592753887	    -1840.3081893921	      113.3537068963	      242.1097010374	    -1850.7903814316	      102.7870476246	      366.1650270224	    -1895.6968784332	       83.5848450661	      324.0401670337	    -1929.6485185623	     1032.9718589783	      432.3337972164	     -300.7080554962	        0.0000000000	      382.1262419224	    -1747.2811937332	      306.4883053303	       24.5111882687	    -2079.3623924255	      108.4267720580	      -78.7090361118	     -300.7080554962	        0.0000000000	      382.1262419224	     -300.7080554962	        0.0000000000	      382.1262419224	     -300.7080554962	        0.0000000000	      382.1262419224	     -300.7080554962	        0.0000000000	      382.1262419224	     -300.7080554962	        0.0000000000	      382.1262419224	     -300.7080554962	        0.0000000000	      382.1262419224	     -300.7080554962	        0.0000000000	      382.1262419224	     -300.7080554962	        0.0000000000	      382.1262419224	     -300.7080554962	        0.0000000000	      382.1262419224	     -300.7080554962	        0.0000000000	      382.1262419224
338	        3.3699998856	    -2041.6405200958	     1381.4169168472	      291.0493835807	    -2061.9380474091	     1402.9496908188	      567.9784715176	    -1989.5770549774	     1444.8575973511	      426.8503859639	    -2197.3340511322	     1136.3133192062	      553.6124706268	    -2178.7303686142	     1268.7221765518	      365.3103020042	    -2231.5552234650	     1186.0060691833	      288.0683615804	    -2196.6053247452	     1274.5110988617	      505.7411640882	    -2106.8649291992	      934.3204498291	      321.9574578106	    -2121.2486028671	      949.7278332710	      541.6505634785	    -1934.5988035202	     1019.7993516922	      431.4569048584	    -1938.0998611450	     1023.1689214706	      483.0934554338	    -1931.0976266861	     1016.4299011230	      379.8203554470	    -1911.8862152100	      958.3082795143	      441.4071664214	    -2108.0225706100	      725.2708673477	      601.0768413544	    -2129.0962696075	      628.2089948654	      572.0240771770	    -2192.3488378525	      751.6463398933	      511.9426697493	    -2209.4883918762	      651.8206000328	      492.2195002437	    -2158.0724716187	      502.8373003006	      543.8229590654	    -2225.7835865021	      527.1037817001	      468.8423722982	    -2183.4782361984	      340.1936888695	      459.1835290194	    -2161.5047454834	      230.3975075483	      444.1855438054	    -2131.4617395401	      281.6430330276	      523.4428197145	    -2115.5927181244	      106.2941253185	      479.3225973845	    -2051.2229204178	       65.6532868743	      435.1745806634	    -2196.4266300201	      104.9319356680	      423.1492988765	    -2174.7952699661	       75.8836939931	      470.5455601215	    -2224.3626117706	       43.6083599925	      495.3088313341	    -2238.4195327759	       58.5133098066	      368.6240445822	    -2280.9755802155	       83.3499953151	      399.4840774685	    -2081.6086530685	      705.3292989731	      251.2986958027	    -2119.0929412842	      610.4309558868	      263.2872089744	    -2179.0269613266	      736.1658811569	      354.7676652670	    -2206.4957618713	      637.4498009682	      348.9583097398	    -2149.9209403992	      502.1509528160	      271.1814045906	    -2227.2971868515	      506.1141848564	      342.4144014716	    -2057.4015378952	      353.2408177853	      329.8712149262	    -1973.5220670700	      295.2263355255	      325.0621818006	    -1995.1986074448	      352.9561161995	      256.4405053854	    -1855.3655147552	      242.9603487253	      264.9049311876	    -1784.5419645309	      255.8936476707	      305.2525669336	    -1908.0946445465	      162.2522324324	      310.0591301918	    -1869.1340684891	      166.1854386330	      262.2010782361	    -1884.1309547424	      110.8993068337	      238.4792715311	    -1895.8461284637	       97.3036363721	      362.0391022414	    -1941.8251514435	       82.6061666012	      319.3810433149	    -1942.5045251846	     1036.6902351379	      432.2898127139	    -2073.3989477158	       80.9924528003	      457.7824026346	     -300.7080554962	        0.0000000000	      382.1262419224	     -300.7080554962	        0.0000000000	      382.1262419224	    -1938.4553432465	     1002.5944709778	      485.4192361236	     -300.7080554962	        0.0000000000	      382.1262419224	     -300.7080554962	        0.0000000000	      382.1262419224	     -300.7080554962	        0.0000000000	      382.1262419224	     -300.7080554962	        0.0000000000	      382.1262419224	     -300.7080554962	        0.0000000000	      382.1262419224	     -300.7080554962	        0.0000000000	      382.1262419224	     -300.7080554962	        0.0000000000	      382.1262419224	     -300.7080554962	        0.0000000000	      382.1262419224	     -300.7080554962	        0.0000000000	      382.1262419224
